<svg xmlns="http://www.w3.org/2000/svg" xmlns:xlink="http://www.w3.org/1999/xlink" width="500" zoomAndPan="magnify" viewBox="0 0 375 374.999991" height="500" preserveAspectRatio="xMidYMid meet" version="1.0"><defs><clipPath id="3450340151"><path d="M 13.394531 50.121094 L 361.394531 50.121094 L 361.394531 324.621094 L 13.394531 324.621094 Z M 13.394531 50.121094 " clip-rule="nonzero"/></clipPath><clipPath id="65e9e541c8"><path d="M 238.886719 150.46875 C 244.25 151.480469 249.519531 152.757812 254.675781 154.285156 C 254.492188 156.242188 254.992188 158.117188 255.976562 159.667969 C 255.929688 159.59375 255.886719 159.519531 255.839844 159.445312 C 255.824219 159.417969 255.808594 159.390625 255.792969 159.367188 C 255.21875 158.367188 254.867188 157.300781 254.71875 156.226562 C 254.710938 156.1875 254.707031 156.148438 254.703125 156.109375 C 254.664062 155.769531 254.644531 155.429688 254.644531 155.09375 C 254.648438 152.144531 256.183594 149.277344 258.914062 147.683594 C 260.257812 146.914062 261.722656 146.546875 263.167969 146.546875 C 266.128906 146.546875 269.011719 148.082031 270.59375 150.828125 C 271.125 151.746094 271.464844 152.722656 271.628906 153.707031 C 271.703125 154.164062 271.738281 154.621094 271.738281 155.074219 C 271.742188 156.75 271.25 158.394531 270.324219 159.796875 C 276.109375 162.167969 281.734375 164.875 287.144531 167.902344 C 286.625 168.875 286.046875 169.820312 285.40625 170.726562 C 285.421875 170.710938 285.433594 170.691406 285.449219 170.675781 C 291.367188 162.210938 292.164062 150.734375 286.609375 141.335938 C 283.320312 135.769531 278.390625 131.796875 272.789062 129.6875 C 272.277344 129.519531 271.757812 129.363281 271.234375 129.226562 C 268.726562 128.484375 266.113281 128.101562 263.472656 128.101562 C 259.832031 128.097656 256.15625 128.835938 252.660156 130.359375 C 252.617188 130.382812 252.574219 130.398438 252.527344 130.417969 L 222.117188 112.871094 L 190.972656 130.84375 L 165.132812 115.9375 L 220.261719 84.109375 L 309.730469 135.726562 L 309.730469 168.203125 L 220.226562 219.886719 L 130.742188 168.226562 C 130.738281 168.230469 130.734375 168.230469 130.730469 168.230469 L 67.675781 131.839844 C 68.019531 126.535156 66.753906 121.273438 64.085938 116.660156 C 59.667969 109.027344 52.011719 104.128906 43.414062 103.21875 C 31.371094 101.941406 19.871094 108.855469 15.363281 120.097656 C 12.363281 127.570312 12.699219 136.300781 17.039062 143.808594 C 18.453125 146.253906 20.195312 148.402344 22.179688 150.222656 C 22.179688 150.222656 22.179688 150.226562 22.179688 150.226562 C 29.726562 157.160156 40.558594 159.25 50.113281 155.648438 L 101.347656 185.238281 L 101.347656 188.671875 L 101.367188 188.714844 L 101.367188 255.980469 L 220.261719 324.621094 L 320.511719 266.773438 C 324.953125 269.363281 330.09375 270.636719 335.199219 270.449219 C 339.542969 270.289062 343.875 269.085938 347.804688 266.816406 C 360.792969 259.34375 365.261719 242.71875 357.746094 229.734375 C 350.953125 217.949219 336.640625 213.191406 324.332031 218.011719 C 314.972656 221.675781 308.296875 230.246094 307.210938 240.414062 L 220.21875 290.625 L 144.488281 246.9375 C 144.496094 246.941406 144.507812 246.941406 144.511719 246.941406 L 130.753906 239.015625 L 130.753906 202.199219 L 205.550781 245.359375 L 220.277344 253.859375 L 322.835938 194.65625 L 339.117188 185.257812 L 339.117188 118.757812 C 313.503906 103.988281 287.902344 89.195312 262.289062 74.398438 C 262.289062 74.398438 262.285156 74.402344 262.28125 74.40625 C 248.261719 66.308594 234.238281 58.207031 220.21875 50.121094 L 135.664062 98.933594 L 129.839844 95.5625 C 130.0625 90.414062 128.832031 85.3125 126.21875 80.792969 C 118.703125 67.789062 102.097656 63.367188 89.121094 70.855469 C 76.125 78.359375 71.667969 94.941406 79.175781 107.941406 C 85.933594 119.632812 100.222656 124.558594 112.6875 119.621094 L 169.988281 152.683594 C 169.980469 152.6875 169.972656 152.6875 169.96875 152.691406 L 191.011719 164.816406 L 222.207031 146.835938 C 227.773438 150.042969 232.917969 153.570312 238.316406 156.953125 C 238.308594 156.871094 238.304688 156.789062 238.296875 156.707031 C 239.332031 170.292969 250.6875 180.996094 264.542969 180.996094 C 273.039062 180.996094 280.59375 176.972656 285.40625 170.726562 C 286.046875 169.820312 286.625 168.875 287.144531 167.902344 C 281.734375 164.875 276.109375 162.167969 270.324219 159.796875 C 270.3125 159.816406 270.296875 159.839844 270.28125 159.863281 C 269.976562 160.3125 269.628906 160.738281 269.238281 161.128906 C 269.238281 161.128906 269.234375 161.128906 269.234375 161.132812 C 268.921875 161.441406 268.585938 161.730469 268.222656 161.992188 C 268.222656 161.992188 268.222656 161.996094 268.21875 161.996094 C 267.804688 162.296875 267.363281 162.5625 266.898438 162.785156 C 266.1875 163.132812 265.425781 163.378906 264.636719 163.515625 C 264.621094 163.515625 264.605469 163.519531 264.589844 163.523438 C 264.355469 163.5625 264.117188 163.589844 263.878906 163.609375 C 263.875 163.609375 263.875 163.609375 263.871094 163.609375 C 263.648438 163.628906 263.421875 163.636719 263.191406 163.636719 C 263.050781 163.636719 262.914062 163.632812 262.773438 163.628906 C 261.511719 163.566406 260.332031 163.234375 259.285156 162.695312 C 257.925781 161.992188 256.789062 160.941406 255.980469 159.671875 C 255.980469 159.671875 255.976562 159.667969 255.976562 159.667969 C 254.992188 158.117188 254.492188 156.242188 254.675781 154.285156 C 249.519531 152.757812 244.25 151.480469 238.890625 150.46875 Z M 48.148438 126.289062 C 48.664062 127.28125 48.96875 128.335938 49.070312 129.402344 C 49.375 132.597656 47.871094 135.867188 44.828125 137.621094 C 43.0625 138.640625 41.089844 138.96875 39.222656 138.671875 C 38.394531 138.542969 37.585938 138.289062 36.828125 137.921875 C 35.484375 137.269531 34.296875 136.253906 33.414062 134.914062 C 33.328125 134.78125 33.242188 134.644531 33.164062 134.503906 C 30.800781 130.421875 32.203125 125.199219 36.289062 122.832031 C 37.636719 122.058594 39.101562 121.6875 40.550781 121.6875 C 41.515625 121.6875 42.46875 121.851562 43.375 122.167969 C 45.125 122.773438 46.679688 123.949219 47.746094 125.601562 C 47.894531 125.828125 48.027344 126.058594 48.148438 126.289062 Z M 111.222656 94.964844 C 111.132812 96.292969 110.726562 97.589844 110.042969 98.742188 C 109.523438 99.613281 108.851562 100.386719 108.066406 101.023438 C 107.726562 101.296875 107.359375 101.550781 106.96875 101.777344 C 105.625 102.550781 104.160156 102.917969 102.714844 102.917969 C 101.394531 102.917969 100.09375 102.613281 98.914062 102.03125 C 97.539062 101.351562 96.375 100.3125 95.539062 99.035156 C 95.453125 98.90625 95.375 98.773438 95.296875 98.640625 C 94.515625 97.289062 94.148438 95.816406 94.152344 94.363281 C 94.152344 92.871094 94.546875 91.402344 95.289062 90.109375 C 96.039062 88.804688 97.125 87.714844 98.425781 86.960938 C 98.480469 86.929688 98.535156 86.898438 98.589844 86.867188 C 100.929688 85.59375 103.609375 85.519531 105.910156 86.449219 C 107.339844 87.03125 108.578125 87.988281 109.5 89.195312 C 109.714844 89.480469 109.917969 89.78125 110.097656 90.101562 C 110.792969 91.304688 111.164062 92.601562 111.234375 93.898438 C 111.242188 94.058594 111.246094 94.214844 111.246094 94.375 C 111.246094 94.574219 111.238281 94.769531 111.222656 94.964844 Z M 329.21875 250.242188 C 324.585938 246.910156 324.472656 240.023438 329.042969 236.527344 C 332.96875 233.554688 338.484375 234.464844 341.246094 238.441406 C 343.933594 242.308594 342.964844 247.613281 339.144531 250.300781 C 336.167969 252.394531 332.175781 252.371094 329.21875 250.242188 Z M 238.21875 154.683594 C 238.21875 154.910156 238.222656 155.136719 238.226562 155.363281 C 238.222656 155.136719 238.21875 154.910156 238.21875 154.683594 Z M 238.226562 155.363281 C 238.234375 155.589844 238.242188 155.8125 238.253906 156.035156 C 238.242188 155.8125 238.234375 155.589844 238.226562 155.363281 Z M 238.253906 156.039062 C 238.265625 156.261719 238.28125 156.484375 238.296875 156.707031 C 238.28125 156.484375 238.265625 156.261719 238.253906 156.039062 Z M 238.253906 156.039062 " clip-rule="evenodd"/></clipPath><linearGradient x1="190.623091" gradientTransform="matrix(0.0383742, 0, 0, 0.0383601, 13.396093, 50.120849)" y1="-138.815723" x2="6738.046554" gradientUnits="userSpaceOnUse" y2="8852.848732" id="452f575048"><stop stop-opacity="1" stop-color="rgb(49.398804%, 85.099792%, 34.098816%)" offset="0"/><stop stop-opacity="1" stop-color="rgb(49.398804%, 85.099792%, 34.098816%)" offset="0.125"/><stop stop-opacity="1" stop-color="rgb(49.398804%, 85.099792%, 34.098816%)" offset="0.1875"/><stop stop-opacity="1" stop-color="rgb(49.398804%, 85.099792%, 34.098816%)" offset="0.21875"/><stop stop-opacity="1" stop-color="rgb(49.143982%, 85.014343%, 34.405518%)" offset="0.222656"/><stop stop-opacity="1" stop-color="rgb(48.890686%, 84.928894%, 34.713745%)" offset="0.226562"/><stop stop-opacity="1" stop-color="rgb(48.548889%, 84.814453%, 35.124207%)" offset="0.230469"/><stop stop-opacity="1" stop-color="rgb(48.208618%, 84.701538%, 35.536194%)" offset="0.234375"/><stop stop-opacity="1" stop-color="rgb(47.866821%, 84.587097%, 35.946655%)" offset="0.238281"/><stop stop-opacity="1" stop-color="rgb(47.52655%, 84.474182%, 36.358643%)" offset="0.242188"/><stop stop-opacity="1" stop-color="rgb(47.184753%, 84.359741%, 36.769104%)" offset="0.246094"/><stop stop-opacity="1" stop-color="rgb(46.844482%, 84.2453%, 37.181091%)" offset="0.25"/><stop stop-opacity="1" stop-color="rgb(46.502686%, 84.130859%, 37.591553%)" offset="0.253906"/><stop stop-opacity="1" stop-color="rgb(46.162415%, 84.017944%, 38.00354%)" offset="0.257812"/><stop stop-opacity="1" stop-color="rgb(45.822144%, 83.903503%, 38.414001%)" offset="0.261719"/><stop stop-opacity="1" stop-color="rgb(45.481873%, 83.790588%, 38.825989%)" offset="0.265625"/><stop stop-opacity="1" stop-color="rgb(45.140076%, 83.676147%, 39.23645%)" offset="0.269531"/><stop stop-opacity="1" stop-color="rgb(44.799805%, 83.563232%, 39.648438%)" offset="0.273438"/><stop stop-opacity="1" stop-color="rgb(44.458008%, 83.448792%, 40.058899%)" offset="0.277344"/><stop stop-opacity="1" stop-color="rgb(44.117737%, 83.335876%, 40.470886%)" offset="0.28125"/><stop stop-opacity="1" stop-color="rgb(43.77594%, 83.221436%, 40.881348%)" offset="0.285156"/><stop stop-opacity="1" stop-color="rgb(43.435669%, 83.106995%, 41.293335%)" offset="0.289062"/><stop stop-opacity="1" stop-color="rgb(43.093872%, 82.992554%, 41.703796%)" offset="0.292969"/><stop stop-opacity="1" stop-color="rgb(42.753601%, 82.879639%, 42.115784%)" offset="0.296875"/><stop stop-opacity="1" stop-color="rgb(42.411804%, 82.765198%, 42.527771%)" offset="0.300781"/><stop stop-opacity="1" stop-color="rgb(42.071533%, 82.652283%, 42.939758%)" offset="0.304688"/><stop stop-opacity="1" stop-color="rgb(41.731262%, 82.537842%, 43.35022%)" offset="0.308594"/><stop stop-opacity="1" stop-color="rgb(41.390991%, 82.424927%, 43.762207%)" offset="0.3125"/><stop stop-opacity="1" stop-color="rgb(41.049194%, 82.310486%, 44.172668%)" offset="0.316406"/><stop stop-opacity="1" stop-color="rgb(40.708923%, 82.196045%, 44.584656%)" offset="0.320312"/><stop stop-opacity="1" stop-color="rgb(40.367126%, 82.081604%, 44.995117%)" offset="0.324219"/><stop stop-opacity="1" stop-color="rgb(40.026855%, 81.968689%, 45.407104%)" offset="0.328125"/><stop stop-opacity="1" stop-color="rgb(39.685059%, 81.854248%, 45.817566%)" offset="0.332031"/><stop stop-opacity="1" stop-color="rgb(39.344788%, 81.741333%, 46.229553%)" offset="0.335938"/><stop stop-opacity="1" stop-color="rgb(39.002991%, 81.626892%, 46.640015%)" offset="0.339844"/><stop stop-opacity="1" stop-color="rgb(38.66272%, 81.513977%, 47.052002%)" offset="0.34375"/><stop stop-opacity="1" stop-color="rgb(38.320923%, 81.399536%, 47.462463%)" offset="0.347656"/><stop stop-opacity="1" stop-color="rgb(37.980652%, 81.285095%, 47.874451%)" offset="0.351562"/><stop stop-opacity="1" stop-color="rgb(37.640381%, 81.170654%, 48.284912%)" offset="0.355469"/><stop stop-opacity="1" stop-color="rgb(37.30011%, 81.057739%, 48.696899%)" offset="0.359375"/><stop stop-opacity="1" stop-color="rgb(36.958313%, 80.943298%, 49.107361%)" offset="0.363281"/><stop stop-opacity="1" stop-color="rgb(36.618042%, 80.830383%, 49.519348%)" offset="0.367188"/><stop stop-opacity="1" stop-color="rgb(36.276245%, 80.715942%, 49.92981%)" offset="0.371094"/><stop stop-opacity="1" stop-color="rgb(35.935974%, 80.603027%, 50.341797%)" offset="0.375"/><stop stop-opacity="1" stop-color="rgb(35.594177%, 80.488586%, 50.752258%)" offset="0.378906"/><stop stop-opacity="1" stop-color="rgb(35.253906%, 80.374146%, 51.164246%)" offset="0.382812"/><stop stop-opacity="1" stop-color="rgb(34.912109%, 80.259705%, 51.576233%)" offset="0.386719"/><stop stop-opacity="1" stop-color="rgb(34.571838%, 80.14679%, 51.98822%)" offset="0.390625"/><stop stop-opacity="1" stop-color="rgb(34.231567%, 80.032349%, 52.398682%)" offset="0.394531"/><stop stop-opacity="1" stop-color="rgb(33.891296%, 79.919434%, 52.810669%)" offset="0.398438"/><stop stop-opacity="1" stop-color="rgb(33.5495%, 79.804993%, 53.22113%)" offset="0.402344"/><stop stop-opacity="1" stop-color="rgb(33.209229%, 79.692078%, 53.633118%)" offset="0.40625"/><stop stop-opacity="1" stop-color="rgb(32.867432%, 79.577637%, 54.043579%)" offset="0.410156"/><stop stop-opacity="1" stop-color="rgb(32.527161%, 79.463196%, 54.455566%)" offset="0.414062"/><stop stop-opacity="1" stop-color="rgb(32.185364%, 79.348755%, 54.866028%)" offset="0.417969"/><stop stop-opacity="1" stop-color="rgb(31.845093%, 79.23584%, 55.278015%)" offset="0.421875"/><stop stop-opacity="1" stop-color="rgb(31.503296%, 79.121399%, 55.688477%)" offset="0.425781"/><stop stop-opacity="1" stop-color="rgb(31.163025%, 79.008484%, 56.100464%)" offset="0.429688"/><stop stop-opacity="1" stop-color="rgb(30.821228%, 78.894043%, 56.510925%)" offset="0.433594"/><stop stop-opacity="1" stop-color="rgb(30.480957%, 78.781128%, 56.922913%)" offset="0.4375"/><stop stop-opacity="1" stop-color="rgb(30.140686%, 78.666687%, 57.333374%)" offset="0.441406"/><stop stop-opacity="1" stop-color="rgb(29.800415%, 78.552246%, 57.745361%)" offset="0.445312"/><stop stop-opacity="1" stop-color="rgb(29.458618%, 78.437805%, 58.155823%)" offset="0.449219"/><stop stop-opacity="1" stop-color="rgb(29.118347%, 78.32489%, 58.56781%)" offset="0.453125"/><stop stop-opacity="1" stop-color="rgb(28.77655%, 78.210449%, 58.978271%)" offset="0.457031"/><stop stop-opacity="1" stop-color="rgb(28.436279%, 78.097534%, 59.390259%)" offset="0.460938"/><stop stop-opacity="1" stop-color="rgb(28.094482%, 77.983093%, 59.80072%)" offset="0.464844"/><stop stop-opacity="1" stop-color="rgb(27.754211%, 77.870178%, 60.212708%)" offset="0.46875"/><stop stop-opacity="1" stop-color="rgb(27.412415%, 77.755737%, 60.623169%)" offset="0.472656"/><stop stop-opacity="1" stop-color="rgb(27.072144%, 77.641296%, 61.035156%)" offset="0.476562"/><stop stop-opacity="1" stop-color="rgb(26.730347%, 77.526855%, 61.447144%)" offset="0.480469"/><stop stop-opacity="1" stop-color="rgb(26.390076%, 77.41394%, 61.859131%)" offset="0.484375"/><stop stop-opacity="1" stop-color="rgb(26.049805%, 77.2995%, 62.269592%)" offset="0.488281"/><stop stop-opacity="1" stop-color="rgb(25.709534%, 77.186584%, 62.68158%)" offset="0.492187"/><stop stop-opacity="1" stop-color="rgb(25.367737%, 77.072144%, 63.092041%)" offset="0.496094"/><stop stop-opacity="1" stop-color="rgb(25.027466%, 76.959229%, 63.504028%)" offset="0.5"/><stop stop-opacity="1" stop-color="rgb(24.685669%, 76.844788%, 63.91449%)" offset="0.503906"/><stop stop-opacity="1" stop-color="rgb(24.345398%, 76.730347%, 64.326477%)" offset="0.507812"/><stop stop-opacity="1" stop-color="rgb(24.003601%, 76.615906%, 64.736938%)" offset="0.511719"/><stop stop-opacity="1" stop-color="rgb(23.66333%, 76.502991%, 65.148926%)" offset="0.515625"/><stop stop-opacity="1" stop-color="rgb(23.321533%, 76.38855%, 65.559387%)" offset="0.519531"/><stop stop-opacity="1" stop-color="rgb(22.981262%, 76.275635%, 65.971375%)" offset="0.523438"/><stop stop-opacity="1" stop-color="rgb(22.639465%, 76.161194%, 66.381836%)" offset="0.527344"/><stop stop-opacity="1" stop-color="rgb(22.299194%, 76.048279%, 66.793823%)" offset="0.53125"/><stop stop-opacity="1" stop-color="rgb(21.958923%, 75.933838%, 67.204285%)" offset="0.535156"/><stop stop-opacity="1" stop-color="rgb(21.618652%, 75.819397%, 67.616272%)" offset="0.539062"/><stop stop-opacity="1" stop-color="rgb(21.276855%, 75.704956%, 68.026733%)" offset="0.542969"/><stop stop-opacity="1" stop-color="rgb(20.936584%, 75.592041%, 68.438721%)" offset="0.546875"/><stop stop-opacity="1" stop-color="rgb(20.594788%, 75.4776%, 68.849182%)" offset="0.550781"/><stop stop-opacity="1" stop-color="rgb(20.254517%, 75.364685%, 69.261169%)" offset="0.554688"/><stop stop-opacity="1" stop-color="rgb(19.91272%, 75.250244%, 69.671631%)" offset="0.558594"/><stop stop-opacity="1" stop-color="rgb(19.572449%, 75.137329%, 70.083618%)" offset="0.5625"/><stop stop-opacity="1" stop-color="rgb(19.230652%, 75.022888%, 70.495605%)" offset="0.566406"/><stop stop-opacity="1" stop-color="rgb(18.890381%, 74.908447%, 70.907593%)" offset="0.570312"/><stop stop-opacity="1" stop-color="rgb(18.55011%, 74.794006%, 71.318054%)" offset="0.574219"/><stop stop-opacity="1" stop-color="rgb(18.209839%, 74.681091%, 71.730042%)" offset="0.578125"/><stop stop-opacity="1" stop-color="rgb(17.868042%, 74.56665%, 72.140503%)" offset="0.582031"/><stop stop-opacity="1" stop-color="rgb(17.527771%, 74.453735%, 72.55249%)" offset="0.585937"/><stop stop-opacity="1" stop-color="rgb(17.185974%, 74.339294%, 72.962952%)" offset="0.589844"/><stop stop-opacity="1" stop-color="rgb(16.845703%, 74.226379%, 73.374939%)" offset="0.59375"/><stop stop-opacity="1" stop-color="rgb(16.503906%, 74.111938%, 73.7854%)" offset="0.597656"/><stop stop-opacity="1" stop-color="rgb(16.163635%, 73.999023%, 74.197388%)" offset="0.601562"/><stop stop-opacity="1" stop-color="rgb(15.821838%, 73.884583%, 74.607849%)" offset="0.605469"/><stop stop-opacity="1" stop-color="rgb(15.481567%, 73.770142%, 75.019836%)" offset="0.609375"/><stop stop-opacity="1" stop-color="rgb(15.139771%, 73.655701%, 75.430298%)" offset="0.613281"/><stop stop-opacity="1" stop-color="rgb(14.7995%, 73.542786%, 75.842285%)" offset="0.617188"/><stop stop-opacity="1" stop-color="rgb(14.459229%, 73.428345%, 76.252747%)" offset="0.621094"/><stop stop-opacity="1" stop-color="rgb(14.118958%, 73.31543%, 76.664734%)" offset="0.625"/><stop stop-opacity="1" stop-color="rgb(13.777161%, 73.200989%, 77.075195%)" offset="0.628906"/><stop stop-opacity="1" stop-color="rgb(13.43689%, 73.088074%, 77.487183%)" offset="0.632812"/><stop stop-opacity="1" stop-color="rgb(13.095093%, 72.973633%, 77.897644%)" offset="0.636719"/><stop stop-opacity="1" stop-color="rgb(12.754822%, 72.859192%, 78.309631%)" offset="0.640625"/><stop stop-opacity="1" stop-color="rgb(12.413025%, 72.744751%, 78.720093%)" offset="0.644531"/><stop stop-opacity="1" stop-color="rgb(12.072754%, 72.631836%, 79.13208%)" offset="0.648437"/><stop stop-opacity="1" stop-color="rgb(11.730957%, 72.517395%, 79.542542%)" offset="0.652344"/><stop stop-opacity="1" stop-color="rgb(11.390686%, 72.40448%, 79.954529%)" offset="0.65625"/><stop stop-opacity="1" stop-color="rgb(11.048889%, 72.290039%, 80.366516%)" offset="0.660156"/><stop stop-opacity="1" stop-color="rgb(10.708618%, 72.177124%, 80.778503%)" offset="0.664062"/><stop stop-opacity="1" stop-color="rgb(10.368347%, 72.062683%, 81.188965%)" offset="0.667969"/><stop stop-opacity="1" stop-color="rgb(10.028076%, 71.948242%, 81.600952%)" offset="0.671875"/><stop stop-opacity="1" stop-color="rgb(9.686279%, 71.833801%, 82.011414%)" offset="0.675781"/><stop stop-opacity="1" stop-color="rgb(9.346008%, 71.720886%, 82.423401%)" offset="0.679688"/><stop stop-opacity="1" stop-color="rgb(9.004211%, 71.606445%, 82.833862%)" offset="0.683594"/><stop stop-opacity="1" stop-color="rgb(8.66394%, 71.49353%, 83.24585%)" offset="0.6875"/><stop stop-opacity="1" stop-color="rgb(8.322144%, 71.379089%, 83.656311%)" offset="0.691406"/><stop stop-opacity="1" stop-color="rgb(7.981873%, 71.266174%, 84.068298%)" offset="0.695312"/><stop stop-opacity="1" stop-color="rgb(7.640076%, 71.151733%, 84.47876%)" offset="0.699219"/><stop stop-opacity="1" stop-color="rgb(7.299805%, 71.037292%, 84.890747%)" offset="0.703125"/><stop stop-opacity="1" stop-color="rgb(6.958008%, 70.922852%, 85.301208%)" offset="0.707031"/><stop stop-opacity="1" stop-color="rgb(6.617737%, 70.809937%, 85.713196%)" offset="0.710938"/><stop stop-opacity="1" stop-color="rgb(6.277466%, 70.695496%, 86.123657%)" offset="0.714844"/><stop stop-opacity="1" stop-color="rgb(5.937195%, 70.582581%, 86.535645%)" offset="0.71875"/><stop stop-opacity="1" stop-color="rgb(5.595398%, 70.46814%, 86.946106%)" offset="0.722656"/><stop stop-opacity="1" stop-color="rgb(5.255127%, 70.355225%, 87.358093%)" offset="0.726562"/><stop stop-opacity="1" stop-color="rgb(4.91333%, 70.240784%, 87.768555%)" offset="0.730469"/><stop stop-opacity="1" stop-color="rgb(4.573059%, 70.126343%, 88.180542%)" offset="0.734375"/><stop stop-opacity="1" stop-color="rgb(4.231262%, 70.011902%, 88.591003%)" offset="0.738281"/><stop stop-opacity="1" stop-color="rgb(3.890991%, 69.898987%, 89.002991%)" offset="0.742187"/><stop stop-opacity="1" stop-color="rgb(3.549194%, 69.784546%, 89.414978%)" offset="0.746094"/><stop stop-opacity="1" stop-color="rgb(3.208923%, 69.671631%, 89.826965%)" offset="0.75"/><stop stop-opacity="1" stop-color="rgb(2.867126%, 69.55719%, 90.237427%)" offset="0.753906"/><stop stop-opacity="1" stop-color="rgb(2.526855%, 69.444275%, 90.649414%)" offset="0.757812"/><stop stop-opacity="1" stop-color="rgb(2.186584%, 69.329834%, 91.059875%)" offset="0.761719"/><stop stop-opacity="1" stop-color="rgb(1.846313%, 69.215393%, 91.471863%)" offset="0.765625"/><stop stop-opacity="1" stop-color="rgb(1.504517%, 69.100952%, 91.882324%)" offset="0.769531"/><stop stop-opacity="1" stop-color="rgb(1.164246%, 68.988037%, 92.294312%)" offset="0.773438"/><stop stop-opacity="1" stop-color="rgb(0.822449%, 68.873596%, 92.704773%)" offset="0.777344"/><stop stop-opacity="1" stop-color="rgb(0.482178%, 68.760681%, 93.11676%)" offset="0.78125"/><stop stop-opacity="1" stop-color="rgb(0.241089%, 68.67981%, 93.408203%)" offset="0.785156"/><stop stop-opacity="1" stop-color="rgb(0%, 68.598938%, 93.699646%)" offset="0.789062"/><stop stop-opacity="1" stop-color="rgb(0%, 68.598938%, 93.699646%)" offset="0.796875"/><stop stop-opacity="1" stop-color="rgb(0%, 68.598938%, 93.699646%)" offset="0.8125"/><stop stop-opacity="1" stop-color="rgb(0%, 68.598938%, 93.699646%)" offset="0.875"/><stop stop-opacity="1" stop-color="rgb(0%, 68.598938%, 93.699646%)" offset="1"/></linearGradient></defs><g clip-path="url(#3450340151)"><g clip-path="url(#65e9e541c8)"><path fill="url(#452f575048)" d="M 13.394531 50.121094 L 13.394531 324.621094 L 361.394531 324.621094 L 361.394531 50.121094 Z M 13.394531 50.121094 " fill-rule="nonzero"/></g></g></svg>