<svg xmlns="http://www.w3.org/2000/svg" xmlns:xlink="http://www.w3.org/1999/xlink" width="500" zoomAndPan="magnify" viewBox="0 0 375 374.999991" height="500" preserveAspectRatio="xMidYMid meet" version="1.0"><defs><g/><clipPath id="547e621276"><path d="M 16.449219 12.652344 L 312.699219 12.652344 L 312.699219 246.652344 L 16.449219 246.652344 Z M 16.449219 12.652344 " clip-rule="nonzero"/></clipPath><clipPath id="4b32fa3cf9"><path d="M 208.410156 98.195312 C 212.972656 99.058594 217.457031 100.144531 221.847656 101.449219 C 221.691406 103.117188 222.117188 104.714844 222.957031 106.039062 C 222.917969 105.972656 222.878906 105.910156 222.839844 105.847656 C 222.828125 105.824219 222.816406 105.800781 222.800781 105.777344 C 222.3125 104.929688 222.011719 104.019531 221.886719 103.101562 C 221.882812 103.070312 221.878906 103.035156 221.871094 103.003906 C 221.839844 102.714844 221.820312 102.425781 221.820312 102.136719 C 221.824219 99.625 223.132812 97.175781 225.457031 95.820312 C 226.601562 95.164062 227.847656 94.851562 229.078125 94.851562 C 231.597656 94.851562 234.050781 96.160156 235.402344 98.5 C 235.851562 99.285156 236.140625 100.117188 236.28125 100.957031 C 236.34375 101.34375 236.375 101.734375 236.375 102.121094 C 236.378906 103.546875 235.957031 104.949219 235.171875 106.144531 C 240.097656 108.167969 244.882812 110.476562 249.488281 113.054688 C 249.046875 113.886719 248.554688 114.691406 248.011719 115.464844 C 248.023438 115.449219 248.035156 115.433594 248.046875 115.417969 C 253.082031 108.203125 253.761719 98.421875 249.035156 90.410156 C 246.234375 85.664062 242.035156 82.277344 237.269531 80.480469 C 236.832031 80.335938 236.390625 80.203125 235.945312 80.085938 C 233.8125 79.453125 231.585938 79.128906 229.335938 79.125 C 226.238281 79.125 223.109375 79.753906 220.132812 81.054688 C 220.097656 81.070312 220.058594 81.085938 220.023438 81.101562 L 194.132812 66.144531 L 167.617188 81.464844 L 145.621094 68.757812 L 192.554688 41.628906 L 268.714844 85.628906 L 268.714844 113.3125 L 192.523438 157.371094 L 116.347656 113.332031 C 116.34375 113.335938 116.339844 113.335938 116.339844 113.335938 L 62.660156 82.3125 C 62.953125 77.792969 61.875 73.308594 59.601562 69.375 C 55.84375 62.867188 49.324219 58.691406 42.007812 57.914062 C 31.753906 56.828125 21.964844 62.722656 18.125 72.304688 C 15.574219 78.675781 15.859375 86.117188 19.554688 92.515625 C 20.757812 94.601562 22.242188 96.433594 23.929688 97.984375 C 23.929688 97.984375 23.929688 97.988281 23.929688 97.988281 C 30.351562 103.898438 39.574219 105.679688 47.707031 102.609375 L 91.324219 127.832031 L 91.324219 130.761719 L 91.339844 130.796875 L 91.339844 188.140625 L 192.554688 246.652344 L 277.894531 197.339844 C 281.675781 199.546875 286.054688 200.632812 290.398438 200.472656 C 294.097656 200.335938 297.785156 199.3125 301.128906 197.378906 C 312.1875 191.007812 315.988281 176.835938 309.589844 165.765625 C 303.808594 155.71875 291.625 151.664062 281.148438 155.773438 C 273.179688 158.894531 267.496094 166.203125 266.570312 174.871094 L 192.515625 217.671875 L 128.050781 180.433594 C 128.054688 180.433594 128.066406 180.433594 128.070312 180.433594 L 116.359375 173.675781 L 116.359375 142.292969 L 180.027344 179.085938 L 192.566406 186.328125 L 279.875 135.863281 C 279.871094 135.863281 279.871094 135.863281 279.871094 135.863281 L 293.734375 127.847656 L 293.734375 71.164062 C 271.929688 58.570312 250.136719 45.960938 228.332031 33.347656 C 228.328125 33.347656 228.328125 33.351562 228.324219 33.351562 C 216.390625 26.449219 204.453125 19.546875 192.515625 12.652344 L 120.539062 54.261719 L 115.578125 51.390625 C 115.769531 47 114.722656 42.652344 112.496094 38.796875 C 106.097656 27.710938 91.960938 23.945312 80.917969 30.328125 C 69.851562 36.722656 66.058594 50.859375 72.453125 61.941406 C 78.203125 71.910156 90.367188 76.105469 100.976562 71.898438 L 149.757812 100.085938 C 149.75 100.085938 149.742188 100.085938 149.738281 100.089844 L 167.652344 110.425781 L 194.210938 95.097656 C 198.949219 97.832031 203.324219 100.839844 207.921875 103.722656 C 207.917969 103.652344 207.910156 103.582031 207.90625 103.511719 C 208.785156 115.09375 218.453125 124.21875 230.25 124.21875 C 237.480469 124.21875 243.914062 120.789062 248.011719 115.464844 C 248.554688 114.691406 249.046875 113.886719 249.488281 113.054688 C 244.882812 110.476562 240.09375 108.167969 235.171875 106.144531 C 235.160156 106.164062 235.148438 106.183594 235.132812 106.203125 C 234.875 106.585938 234.578125 106.949219 234.246094 107.28125 C 234.246094 107.28125 234.242188 107.285156 234.242188 107.285156 C 233.976562 107.546875 233.691406 107.792969 233.382812 108.019531 C 233.382812 108.019531 233.378906 108.019531 233.378906 108.019531 C 233.023438 108.277344 232.648438 108.503906 232.253906 108.695312 C 231.648438 108.988281 231 109.199219 230.328125 109.316406 C 230.316406 109.316406 230.304688 109.320312 230.289062 109.320312 C 230.089844 109.355469 229.886719 109.378906 229.683594 109.398438 C 229.683594 109.398438 229.679688 109.398438 229.675781 109.398438 C 229.484375 109.414062 229.292969 109.421875 229.101562 109.421875 C 228.980469 109.421875 228.863281 109.417969 228.742188 109.414062 C 227.667969 109.359375 226.664062 109.078125 225.773438 108.617188 C 224.617188 108.019531 223.648438 107.125 222.960938 106.039062 C 222.960938 106.039062 222.957031 106.039062 222.957031 106.035156 C 222.117188 104.714844 221.695312 103.117188 221.847656 101.449219 C 217.460938 100.144531 212.976562 99.058594 208.410156 98.195312 Z M 46.035156 77.582031 C 46.476562 78.425781 46.734375 79.328125 46.820312 80.238281 C 47.082031 82.960938 45.800781 85.75 43.210938 87.246094 C 41.707031 88.113281 40.027344 88.390625 38.4375 88.140625 C 37.730469 88.027344 37.042969 87.8125 36.398438 87.5 C 35.257812 86.941406 34.242188 86.078125 33.492188 84.933594 C 33.417969 84.820312 33.347656 84.707031 33.28125 84.585938 C 31.269531 81.105469 32.464844 76.65625 35.941406 74.632812 C 37.085938 73.976562 38.335938 73.660156 39.566406 73.660156 C 40.390625 73.660156 41.203125 73.800781 41.972656 74.066406 C 43.460938 74.585938 44.789062 75.585938 45.695312 76.996094 C 45.820312 77.1875 45.933594 77.382812 46.035156 77.582031 Z M 99.730469 50.878906 C 99.652344 52.011719 99.308594 53.117188 98.726562 54.101562 C 98.285156 54.84375 97.714844 55.5 97.046875 56.042969 C 96.753906 56.277344 96.441406 56.496094 96.109375 56.6875 C 94.964844 57.347656 93.71875 57.660156 92.488281 57.660156 C 91.367188 57.660156 90.257812 57.398438 89.253906 56.902344 C 88.082031 56.324219 87.089844 55.4375 86.378906 54.351562 C 86.308594 54.242188 86.238281 54.128906 86.171875 54.011719 C 85.511719 52.863281 85.195312 51.605469 85.199219 50.367188 C 85.199219 49.097656 85.535156 47.84375 86.167969 46.738281 C 86.804688 45.628906 87.730469 44.699219 88.839844 44.058594 C 88.882812 44.03125 88.929688 44.003906 88.976562 43.976562 C 90.96875 42.890625 93.25 42.828125 95.207031 43.621094 C 96.425781 44.117188 97.480469 44.933594 98.265625 45.960938 C 98.449219 46.207031 98.617188 46.460938 98.773438 46.734375 C 99.367188 47.757812 99.679688 48.867188 99.738281 49.972656 C 99.746094 50.105469 99.75 50.242188 99.75 50.378906 C 99.75 50.546875 99.742188 50.714844 99.730469 50.878906 Z M 285.308594 183.25 C 281.363281 180.410156 281.265625 174.535156 285.15625 171.554688 C 288.5 169.019531 293.191406 169.796875 295.546875 173.1875 C 297.832031 176.484375 297.007812 181.003906 293.753906 183.296875 C 291.222656 185.082031 287.824219 185.0625 285.308594 183.25 Z M 207.839844 101.789062 C 207.839844 101.980469 207.84375 102.171875 207.847656 102.367188 C 207.84375 102.171875 207.839844 101.980469 207.839844 101.789062 Z M 207.847656 102.367188 C 207.851562 102.558594 207.859375 102.75 207.871094 102.941406 C 207.859375 102.75 207.851562 102.558594 207.847656 102.367188 Z M 207.871094 102.945312 C 207.878906 103.132812 207.890625 103.324219 207.90625 103.511719 C 207.890625 103.324219 207.878906 103.132812 207.871094 102.945312 Z M 207.871094 102.945312 " clip-rule="evenodd"/></clipPath><linearGradient x1="190.599456" gradientTransform="matrix(0.0326672, 0, 0, 0.0327004, 16.452895, 12.65228)" y1="-138.848181" x2="6738.07031" gradientUnits="userSpaceOnUse" y2="8852.881356" id="a5d5cfcf6f"><stop stop-opacity="1" stop-color="rgb(49.398804%, 85.099792%, 34.098816%)" offset="0"/><stop stop-opacity="1" stop-color="rgb(49.398804%, 85.099792%, 34.098816%)" offset="0.125"/><stop stop-opacity="1" stop-color="rgb(49.398804%, 85.099792%, 34.098816%)" offset="0.1875"/><stop stop-opacity="1" stop-color="rgb(49.398804%, 85.099792%, 34.098816%)" offset="0.21875"/><stop stop-opacity="1" stop-color="rgb(49.143982%, 85.014343%, 34.405518%)" offset="0.222656"/><stop stop-opacity="1" stop-color="rgb(48.890686%, 84.928894%, 34.713745%)" offset="0.226562"/><stop stop-opacity="1" stop-color="rgb(48.548889%, 84.814453%, 35.124207%)" offset="0.230469"/><stop stop-opacity="1" stop-color="rgb(48.208618%, 84.701538%, 35.536194%)" offset="0.234375"/><stop stop-opacity="1" stop-color="rgb(47.866821%, 84.587097%, 35.946655%)" offset="0.238281"/><stop stop-opacity="1" stop-color="rgb(47.52655%, 84.474182%, 36.358643%)" offset="0.242188"/><stop stop-opacity="1" stop-color="rgb(47.184753%, 84.359741%, 36.769104%)" offset="0.246094"/><stop stop-opacity="1" stop-color="rgb(46.844482%, 84.246826%, 37.181091%)" offset="0.25"/><stop stop-opacity="1" stop-color="rgb(46.504211%, 84.132385%, 37.591553%)" offset="0.253906"/><stop stop-opacity="1" stop-color="rgb(46.16394%, 84.017944%, 38.00354%)" offset="0.257812"/><stop stop-opacity="1" stop-color="rgb(45.822144%, 83.903503%, 38.414001%)" offset="0.261719"/><stop stop-opacity="1" stop-color="rgb(45.481873%, 83.790588%, 38.825989%)" offset="0.265625"/><stop stop-opacity="1" stop-color="rgb(45.140076%, 83.676147%, 39.23645%)" offset="0.269531"/><stop stop-opacity="1" stop-color="rgb(44.799805%, 83.563232%, 39.648438%)" offset="0.273438"/><stop stop-opacity="1" stop-color="rgb(44.458008%, 83.448792%, 40.058899%)" offset="0.277344"/><stop stop-opacity="1" stop-color="rgb(44.117737%, 83.335876%, 40.470886%)" offset="0.28125"/><stop stop-opacity="1" stop-color="rgb(43.77594%, 83.221436%, 40.881348%)" offset="0.285156"/><stop stop-opacity="1" stop-color="rgb(43.435669%, 83.106995%, 41.293335%)" offset="0.289062"/><stop stop-opacity="1" stop-color="rgb(43.093872%, 82.992554%, 41.703796%)" offset="0.292969"/><stop stop-opacity="1" stop-color="rgb(42.753601%, 82.879639%, 42.115784%)" offset="0.296875"/><stop stop-opacity="1" stop-color="rgb(42.41333%, 82.765198%, 42.526245%)" offset="0.300781"/><stop stop-opacity="1" stop-color="rgb(42.073059%, 82.652283%, 42.938232%)" offset="0.304687"/><stop stop-opacity="1" stop-color="rgb(41.731262%, 82.537842%, 43.35022%)" offset="0.308594"/><stop stop-opacity="1" stop-color="rgb(41.390991%, 82.424927%, 43.762207%)" offset="0.3125"/><stop stop-opacity="1" stop-color="rgb(41.049194%, 82.310486%, 44.172668%)" offset="0.316406"/><stop stop-opacity="1" stop-color="rgb(40.708923%, 82.196045%, 44.584656%)" offset="0.320312"/><stop stop-opacity="1" stop-color="rgb(40.367126%, 82.081604%, 44.995117%)" offset="0.324219"/><stop stop-opacity="1" stop-color="rgb(40.026855%, 81.968689%, 45.407104%)" offset="0.328125"/><stop stop-opacity="1" stop-color="rgb(39.685059%, 81.854248%, 45.817566%)" offset="0.332031"/><stop stop-opacity="1" stop-color="rgb(39.344788%, 81.741333%, 46.229553%)" offset="0.335938"/><stop stop-opacity="1" stop-color="rgb(39.002991%, 81.626892%, 46.640015%)" offset="0.339844"/><stop stop-opacity="1" stop-color="rgb(38.66272%, 81.513977%, 47.052002%)" offset="0.34375"/><stop stop-opacity="1" stop-color="rgb(38.322449%, 81.399536%, 47.462463%)" offset="0.347656"/><stop stop-opacity="1" stop-color="rgb(37.982178%, 81.285095%, 47.874451%)" offset="0.351562"/><stop stop-opacity="1" stop-color="rgb(37.640381%, 81.170654%, 48.284912%)" offset="0.355469"/><stop stop-opacity="1" stop-color="rgb(37.30011%, 81.057739%, 48.696899%)" offset="0.359375"/><stop stop-opacity="1" stop-color="rgb(36.958313%, 80.943298%, 49.107361%)" offset="0.363281"/><stop stop-opacity="1" stop-color="rgb(36.618042%, 80.830383%, 49.519348%)" offset="0.367188"/><stop stop-opacity="1" stop-color="rgb(36.276245%, 80.715942%, 49.92981%)" offset="0.371094"/><stop stop-opacity="1" stop-color="rgb(35.935974%, 80.603027%, 50.341797%)" offset="0.375"/><stop stop-opacity="1" stop-color="rgb(35.594177%, 80.488586%, 50.752258%)" offset="0.378906"/><stop stop-opacity="1" stop-color="rgb(35.253906%, 80.374146%, 51.164246%)" offset="0.382812"/><stop stop-opacity="1" stop-color="rgb(34.912109%, 80.259705%, 51.574707%)" offset="0.386719"/><stop stop-opacity="1" stop-color="rgb(34.571838%, 80.14679%, 51.986694%)" offset="0.390625"/><stop stop-opacity="1" stop-color="rgb(34.231567%, 80.032349%, 52.398682%)" offset="0.394531"/><stop stop-opacity="1" stop-color="rgb(33.891296%, 79.919434%, 52.810669%)" offset="0.398437"/><stop stop-opacity="1" stop-color="rgb(33.5495%, 79.804993%, 53.22113%)" offset="0.402344"/><stop stop-opacity="1" stop-color="rgb(33.209229%, 79.692078%, 53.633118%)" offset="0.40625"/><stop stop-opacity="1" stop-color="rgb(32.867432%, 79.577637%, 54.043579%)" offset="0.410156"/><stop stop-opacity="1" stop-color="rgb(32.527161%, 79.463196%, 54.455566%)" offset="0.414062"/><stop stop-opacity="1" stop-color="rgb(32.185364%, 79.348755%, 54.866028%)" offset="0.417969"/><stop stop-opacity="1" stop-color="rgb(31.845093%, 79.23584%, 55.278015%)" offset="0.421875"/><stop stop-opacity="1" stop-color="rgb(31.503296%, 79.121399%, 55.688477%)" offset="0.425781"/><stop stop-opacity="1" stop-color="rgb(31.163025%, 79.008484%, 56.100464%)" offset="0.429688"/><stop stop-opacity="1" stop-color="rgb(30.821228%, 78.894043%, 56.510925%)" offset="0.433594"/><stop stop-opacity="1" stop-color="rgb(30.480957%, 78.781128%, 56.922913%)" offset="0.4375"/><stop stop-opacity="1" stop-color="rgb(30.140686%, 78.666687%, 57.333374%)" offset="0.441406"/><stop stop-opacity="1" stop-color="rgb(29.800415%, 78.552246%, 57.745361%)" offset="0.445312"/><stop stop-opacity="1" stop-color="rgb(29.458618%, 78.437805%, 58.155823%)" offset="0.449219"/><stop stop-opacity="1" stop-color="rgb(29.118347%, 78.32489%, 58.56781%)" offset="0.453125"/><stop stop-opacity="1" stop-color="rgb(28.77655%, 78.210449%, 58.978271%)" offset="0.457031"/><stop stop-opacity="1" stop-color="rgb(28.436279%, 78.097534%, 59.390259%)" offset="0.460938"/><stop stop-opacity="1" stop-color="rgb(28.094482%, 77.983093%, 59.80072%)" offset="0.464844"/><stop stop-opacity="1" stop-color="rgb(27.754211%, 77.870178%, 60.212708%)" offset="0.46875"/><stop stop-opacity="1" stop-color="rgb(27.412415%, 77.755737%, 60.623169%)" offset="0.472656"/><stop stop-opacity="1" stop-color="rgb(27.072144%, 77.641296%, 61.035156%)" offset="0.476562"/><stop stop-opacity="1" stop-color="rgb(26.730347%, 77.526855%, 61.447144%)" offset="0.480469"/><stop stop-opacity="1" stop-color="rgb(26.390076%, 77.41394%, 61.859131%)" offset="0.484375"/><stop stop-opacity="1" stop-color="rgb(26.049805%, 77.2995%, 62.269592%)" offset="0.488281"/><stop stop-opacity="1" stop-color="rgb(25.709534%, 77.186584%, 62.68158%)" offset="0.492187"/><stop stop-opacity="1" stop-color="rgb(25.367737%, 77.072144%, 63.092041%)" offset="0.496094"/><stop stop-opacity="1" stop-color="rgb(25.027466%, 76.959229%, 63.504028%)" offset="0.5"/><stop stop-opacity="1" stop-color="rgb(24.685669%, 76.844788%, 63.91449%)" offset="0.503906"/><stop stop-opacity="1" stop-color="rgb(24.345398%, 76.730347%, 64.326477%)" offset="0.507812"/><stop stop-opacity="1" stop-color="rgb(24.003601%, 76.615906%, 64.736938%)" offset="0.511719"/><stop stop-opacity="1" stop-color="rgb(23.66333%, 76.502991%, 65.148926%)" offset="0.515625"/><stop stop-opacity="1" stop-color="rgb(23.321533%, 76.38855%, 65.559387%)" offset="0.519531"/><stop stop-opacity="1" stop-color="rgb(22.981262%, 76.275635%, 65.971375%)" offset="0.523438"/><stop stop-opacity="1" stop-color="rgb(22.639465%, 76.161194%, 66.381836%)" offset="0.527344"/><stop stop-opacity="1" stop-color="rgb(22.299194%, 76.048279%, 66.793823%)" offset="0.53125"/><stop stop-opacity="1" stop-color="rgb(21.958923%, 75.933838%, 67.204285%)" offset="0.535156"/><stop stop-opacity="1" stop-color="rgb(21.618652%, 75.819397%, 67.616272%)" offset="0.539062"/><stop stop-opacity="1" stop-color="rgb(21.276855%, 75.704956%, 68.026733%)" offset="0.542969"/><stop stop-opacity="1" stop-color="rgb(20.936584%, 75.592041%, 68.438721%)" offset="0.546875"/><stop stop-opacity="1" stop-color="rgb(20.594788%, 75.4776%, 68.849182%)" offset="0.550781"/><stop stop-opacity="1" stop-color="rgb(20.254517%, 75.364685%, 69.261169%)" offset="0.554688"/><stop stop-opacity="1" stop-color="rgb(19.91272%, 75.250244%, 69.671631%)" offset="0.558594"/><stop stop-opacity="1" stop-color="rgb(19.572449%, 75.137329%, 70.083618%)" offset="0.5625"/><stop stop-opacity="1" stop-color="rgb(19.230652%, 75.022888%, 70.495605%)" offset="0.566406"/><stop stop-opacity="1" stop-color="rgb(18.890381%, 74.908447%, 70.907593%)" offset="0.570312"/><stop stop-opacity="1" stop-color="rgb(18.548584%, 74.794006%, 71.318054%)" offset="0.574219"/><stop stop-opacity="1" stop-color="rgb(18.208313%, 74.681091%, 71.730042%)" offset="0.578125"/><stop stop-opacity="1" stop-color="rgb(17.868042%, 74.56665%, 72.140503%)" offset="0.582031"/><stop stop-opacity="1" stop-color="rgb(17.527771%, 74.453735%, 72.55249%)" offset="0.585938"/><stop stop-opacity="1" stop-color="rgb(17.185974%, 74.339294%, 72.962952%)" offset="0.589844"/><stop stop-opacity="1" stop-color="rgb(16.845703%, 74.226379%, 73.374939%)" offset="0.59375"/><stop stop-opacity="1" stop-color="rgb(16.503906%, 74.111938%, 73.7854%)" offset="0.597656"/><stop stop-opacity="1" stop-color="rgb(16.163635%, 73.999023%, 74.197388%)" offset="0.601562"/><stop stop-opacity="1" stop-color="rgb(15.821838%, 73.884583%, 74.607849%)" offset="0.605469"/><stop stop-opacity="1" stop-color="rgb(15.481567%, 73.770142%, 75.019836%)" offset="0.609375"/><stop stop-opacity="1" stop-color="rgb(15.139771%, 73.655701%, 75.430298%)" offset="0.613281"/><stop stop-opacity="1" stop-color="rgb(14.7995%, 73.542786%, 75.842285%)" offset="0.617187"/><stop stop-opacity="1" stop-color="rgb(14.457703%, 73.428345%, 76.252747%)" offset="0.621094"/><stop stop-opacity="1" stop-color="rgb(14.117432%, 73.31543%, 76.664734%)" offset="0.625"/><stop stop-opacity="1" stop-color="rgb(13.777161%, 73.200989%, 77.075195%)" offset="0.628906"/><stop stop-opacity="1" stop-color="rgb(13.43689%, 73.088074%, 77.487183%)" offset="0.632812"/><stop stop-opacity="1" stop-color="rgb(13.095093%, 72.973633%, 77.897644%)" offset="0.636719"/><stop stop-opacity="1" stop-color="rgb(12.754822%, 72.859192%, 78.309631%)" offset="0.640625"/><stop stop-opacity="1" stop-color="rgb(12.413025%, 72.744751%, 78.720093%)" offset="0.644531"/><stop stop-opacity="1" stop-color="rgb(12.072754%, 72.631836%, 79.13208%)" offset="0.648438"/><stop stop-opacity="1" stop-color="rgb(11.730957%, 72.517395%, 79.544067%)" offset="0.652344"/><stop stop-opacity="1" stop-color="rgb(11.390686%, 72.40448%, 79.956055%)" offset="0.65625"/><stop stop-opacity="1" stop-color="rgb(11.048889%, 72.290039%, 80.366516%)" offset="0.660156"/><stop stop-opacity="1" stop-color="rgb(10.708618%, 72.177124%, 80.778503%)" offset="0.664062"/><stop stop-opacity="1" stop-color="rgb(10.368347%, 72.062683%, 81.188965%)" offset="0.667969"/><stop stop-opacity="1" stop-color="rgb(10.028076%, 71.948242%, 81.600952%)" offset="0.671875"/><stop stop-opacity="1" stop-color="rgb(9.686279%, 71.833801%, 82.011414%)" offset="0.675781"/><stop stop-opacity="1" stop-color="rgb(9.346008%, 71.720886%, 82.423401%)" offset="0.679688"/><stop stop-opacity="1" stop-color="rgb(9.004211%, 71.606445%, 82.833862%)" offset="0.683594"/><stop stop-opacity="1" stop-color="rgb(8.66394%, 71.49353%, 83.24585%)" offset="0.6875"/><stop stop-opacity="1" stop-color="rgb(8.322144%, 71.379089%, 83.656311%)" offset="0.691406"/><stop stop-opacity="1" stop-color="rgb(7.981873%, 71.266174%, 84.068298%)" offset="0.695312"/><stop stop-opacity="1" stop-color="rgb(7.640076%, 71.151733%, 84.47876%)" offset="0.699219"/><stop stop-opacity="1" stop-color="rgb(7.299805%, 71.037292%, 84.890747%)" offset="0.703125"/><stop stop-opacity="1" stop-color="rgb(6.958008%, 70.922852%, 85.301208%)" offset="0.707031"/><stop stop-opacity="1" stop-color="rgb(6.617737%, 70.809937%, 85.713196%)" offset="0.710937"/><stop stop-opacity="1" stop-color="rgb(6.277466%, 70.695496%, 86.123657%)" offset="0.714844"/><stop stop-opacity="1" stop-color="rgb(5.937195%, 70.582581%, 86.535645%)" offset="0.71875"/><stop stop-opacity="1" stop-color="rgb(5.595398%, 70.46814%, 86.946106%)" offset="0.722656"/><stop stop-opacity="1" stop-color="rgb(5.255127%, 70.355225%, 87.358093%)" offset="0.726562"/><stop stop-opacity="1" stop-color="rgb(4.91333%, 70.240784%, 87.768555%)" offset="0.730469"/><stop stop-opacity="1" stop-color="rgb(4.573059%, 70.126343%, 88.180542%)" offset="0.734375"/><stop stop-opacity="1" stop-color="rgb(4.231262%, 70.011902%, 88.592529%)" offset="0.738281"/><stop stop-opacity="1" stop-color="rgb(3.890991%, 69.898987%, 89.004517%)" offset="0.742188"/><stop stop-opacity="1" stop-color="rgb(3.549194%, 69.784546%, 89.414978%)" offset="0.746094"/><stop stop-opacity="1" stop-color="rgb(3.208923%, 69.671631%, 89.826965%)" offset="0.75"/><stop stop-opacity="1" stop-color="rgb(2.867126%, 69.55719%, 90.237427%)" offset="0.753906"/><stop stop-opacity="1" stop-color="rgb(2.526855%, 69.444275%, 90.649414%)" offset="0.757812"/><stop stop-opacity="1" stop-color="rgb(2.186584%, 69.329834%, 91.059875%)" offset="0.761719"/><stop stop-opacity="1" stop-color="rgb(1.846313%, 69.215393%, 91.471863%)" offset="0.765625"/><stop stop-opacity="1" stop-color="rgb(1.504517%, 69.100952%, 91.882324%)" offset="0.769531"/><stop stop-opacity="1" stop-color="rgb(1.164246%, 68.988037%, 92.294312%)" offset="0.773438"/><stop stop-opacity="1" stop-color="rgb(0.822449%, 68.873596%, 92.704773%)" offset="0.777344"/><stop stop-opacity="1" stop-color="rgb(0.482178%, 68.760681%, 93.11676%)" offset="0.78125"/><stop stop-opacity="1" stop-color="rgb(0.241089%, 68.67981%, 93.408203%)" offset="0.785156"/><stop stop-opacity="1" stop-color="rgb(0%, 68.598938%, 93.699646%)" offset="0.789062"/><stop stop-opacity="1" stop-color="rgb(0%, 68.598938%, 93.699646%)" offset="0.796875"/><stop stop-opacity="1" stop-color="rgb(0%, 68.598938%, 93.699646%)" offset="0.8125"/><stop stop-opacity="1" stop-color="rgb(0%, 68.598938%, 93.699646%)" offset="0.875"/><stop stop-opacity="1" stop-color="rgb(0%, 68.598938%, 93.699646%)" offset="1"/></linearGradient></defs><g clip-path="url(#547e621276)"><g clip-path="url(#4b32fa3cf9)"><path fill="url(#a5d5cfcf6f)" d="M 16.449219 12.652344 L 16.449219 246.652344 L 312.699219 246.652344 L 312.699219 12.652344 Z M 16.449219 12.652344 " fill-rule="nonzero"/></g></g><g fill="#6e57e0" fill-opacity="1"><g transform="translate(34.089846, 306.239819)"><g><path d="M 3.59375 -46.09375 L 24.765625 -46.09375 C 31.804688 -46.09375 35.328125 -43.125 35.328125 -37.1875 L 35.328125 -8.90625 C 35.328125 -2.96875 31.804688 0 24.765625 0 L 3.59375 0 Z M 22.765625 -9.84375 L 22.765625 -36.25 C 22.765625 -37.3125 22.164062 -37.84375 20.96875 -37.84375 L 16.15625 -37.84375 L 16.15625 -8.25 L 20.96875 -8.25 C 22.164062 -8.25 22.765625 -8.78125 22.765625 -9.84375 Z M 22.765625 -9.84375 "/></g></g></g><g fill="#6e57e0" fill-opacity="1"><g transform="translate(72.066307, 306.239819)"><g><path d="M 19.53125 -35.828125 L 31.515625 -35.828125 L 31.515625 0 L 19.3125 0 L 19.3125 -3.875 C 18.40625 -1.289062 16.300781 0 13 0 L 11.703125 0 C 5.335938 0 2.15625 -2.96875 2.15625 -8.90625 L 2.15625 -26.921875 C 2.15625 -32.859375 5.335938 -35.828125 11.703125 -35.828125 L 13 -35.828125 C 16.6875 -35.828125 18.863281 -34.296875 19.53125 -31.234375 Z M 16.15625 -8.96875 L 17.375 -8.96875 C 18.664062 -8.96875 19.3125 -9.6875 19.3125 -11.125 L 19.3125 -24.703125 C 19.3125 -26.140625 18.664062 -26.859375 17.375 -26.859375 L 16.15625 -26.859375 C 14.957031 -26.859375 14.359375 -26.328125 14.359375 -25.265625 L 14.359375 -10.546875 C 14.359375 -9.492188 14.957031 -8.96875 16.15625 -8.96875 Z M 16.15625 -8.96875 "/></g></g></g><g fill="#6e57e0" fill-opacity="1"><g transform="translate(106.453306, 306.239819)"><g><path d="M 21.03125 -26.859375 L 16.515625 -26.859375 L 16.515625 -10.546875 C 16.515625 -9.492188 17.113281 -8.96875 18.3125 -8.96875 L 20.96875 -8.96875 L 20.96875 0 L 14.859375 0 C 7.828125 0 4.3125 -2.96875 4.3125 -8.90625 L 4.3125 -26.859375 L 0.359375 -26.859375 L 0.359375 -35.828125 L 4.3125 -35.828125 L 4.3125 -42.859375 L 16.515625 -42.859375 L 16.515625 -35.828125 L 21.03125 -35.828125 Z M 21.03125 -26.859375 "/></g></g></g><g fill="#6e57e0" fill-opacity="1"><g transform="translate(128.20541, 306.239819)"><g><path d="M 19.53125 -35.828125 L 31.515625 -35.828125 L 31.515625 0 L 19.3125 0 L 19.3125 -3.875 C 18.40625 -1.289062 16.300781 0 13 0 L 11.703125 0 C 5.335938 0 2.15625 -2.96875 2.15625 -8.90625 L 2.15625 -26.921875 C 2.15625 -32.859375 5.335938 -35.828125 11.703125 -35.828125 L 13 -35.828125 C 16.6875 -35.828125 18.863281 -34.296875 19.53125 -31.234375 Z M 16.15625 -8.96875 L 17.375 -8.96875 C 18.664062 -8.96875 19.3125 -9.6875 19.3125 -11.125 L 19.3125 -24.703125 C 19.3125 -26.140625 18.664062 -26.859375 17.375 -26.859375 L 16.15625 -26.859375 C 14.957031 -26.859375 14.359375 -26.328125 14.359375 -25.265625 L 14.359375 -10.546875 C 14.359375 -9.492188 14.957031 -8.96875 16.15625 -8.96875 Z M 16.15625 -8.96875 "/></g></g></g><g fill="#6e57e0" fill-opacity="1"><g transform="translate(162.592409, 306.239819)"><g><path d="M 15.4375 -8.96875 L 31.15625 -8.96875 L 31.15625 0 L 2.875 0 L 2.875 -46.09375 L 30.515625 -46.09375 L 30.515625 -37.125 L 15.4375 -37.125 L 15.4375 -27.71875 L 28.4375 -27.71875 L 28.4375 -18.734375 L 15.4375 -18.734375 Z M 15.4375 -8.96875 "/></g></g></g><g fill="#6e57e0" fill-opacity="1"><g transform="translate(194.825733, 306.239819)"><g><path d="M 23.1875 -18.53125 L 32.09375 0 L 19.75 0 L 15.859375 -10.625 L 12.34375 0 L 0.4375 0 L 8.609375 -18.3125 L 0 -35.828125 L 12.78125 -35.828125 L 15.859375 -25.84375 L 18.953125 -35.828125 L 31.09375 -35.828125 Z M 23.1875 -18.53125 "/></g></g></g><g fill="#6e57e0" fill-opacity="1"><g transform="translate(226.915479, 306.239819)"><g><path d="M 21.390625 -35.828125 L 22.6875 -35.828125 C 29.050781 -35.828125 32.234375 -32.859375 32.234375 -26.921875 L 32.234375 -8.90625 C 32.234375 -2.96875 29.050781 0 22.6875 0 L 21.390625 0 C 18.085938 0 15.984375 -1.289062 15.078125 -3.875 L 15.078125 9.265625 L 2.875 9.265625 L 2.875 -35.828125 L 14.859375 -35.828125 L 14.859375 -31.234375 C 15.523438 -34.296875 17.703125 -35.828125 21.390625 -35.828125 Z M 20.03125 -10.546875 L 20.03125 -25.265625 C 20.03125 -26.328125 19.429688 -26.859375 18.234375 -26.859375 L 17.015625 -26.859375 C 15.722656 -26.859375 15.078125 -26.140625 15.078125 -24.703125 L 15.078125 -11.125 C 15.078125 -9.6875 15.722656 -8.96875 17.015625 -8.96875 L 18.234375 -8.96875 C 19.429688 -8.96875 20.03125 -9.492188 20.03125 -10.546875 Z M 20.03125 -10.546875 "/></g></g></g><g fill="#6e57e0" fill-opacity="1"><g transform="translate(261.302478, 306.239819)"><g><path d="M 12.703125 -35.828125 L 21.46875 -35.828125 C 28.5 -35.828125 32.015625 -32.859375 32.015625 -26.921875 L 32.015625 -14.71875 L 13.71875 -14.71875 L 13.71875 -9.984375 C 13.71875 -8.929688 14.316406 -8.40625 15.515625 -8.40625 L 18.671875 -8.40625 C 19.867188 -8.40625 20.46875 -8.976562 20.46875 -10.125 L 20.46875 -12.140625 L 32.015625 -12.140625 L 32.015625 -8.90625 C 32.015625 -2.96875 28.5 0 21.46875 0 L 12.703125 0 C 5.671875 0 2.15625 -2.96875 2.15625 -8.90625 L 2.15625 -26.921875 C 2.15625 -32.859375 5.671875 -35.828125 12.703125 -35.828125 Z M 13.71875 -21.328125 L 20.46875 -21.328125 L 20.46875 -25.84375 C 20.46875 -26.894531 19.867188 -27.421875 18.671875 -27.421875 L 15.515625 -27.421875 C 14.316406 -27.421875 13.71875 -26.894531 13.71875 -25.84375 Z M 13.71875 -21.328125 "/></g></g></g><g fill="#6e57e0" fill-opacity="1"><g transform="translate(295.115167, 306.239819)"><g><path d="M 22.609375 -36.1875 L 23.6875 -36.1875 L 23.6875 -25.5625 L 19.59375 -25.5625 C 16.582031 -25.5625 15.078125 -23.929688 15.078125 -20.671875 L 15.078125 0 L 2.875 0 L 2.875 -35.828125 L 14.859375 -35.828125 L 14.859375 -30.296875 C 15.242188 -32.117188 16.101562 -33.554688 17.4375 -34.609375 C 18.78125 -35.660156 20.503906 -36.1875 22.609375 -36.1875 Z M 22.609375 -36.1875 "/></g></g></g><g fill="#6e57e0" fill-opacity="1"><g transform="translate(319.164535, 306.239819)"><g><path d="M 21.03125 -26.859375 L 16.515625 -26.859375 L 16.515625 -10.546875 C 16.515625 -9.492188 17.113281 -8.96875 18.3125 -8.96875 L 20.96875 -8.96875 L 20.96875 0 L 14.859375 0 C 7.828125 0 4.3125 -2.96875 4.3125 -8.90625 L 4.3125 -26.859375 L 0.359375 -26.859375 L 0.359375 -35.828125 L 4.3125 -35.828125 L 4.3125 -42.859375 L 16.515625 -42.859375 L 16.515625 -35.828125 L 21.03125 -35.828125 Z M 21.03125 -26.859375 "/></g></g></g><g fill="#6e57e0" fill-opacity="1"><g transform="translate(122.294737, 350.039208)"><g><path d="M 12.671875 0 L 11.984375 -3.3125 L 6.671875 -3.3125 L 5.9375 0 L 0 0 L 5.703125 -22.171875 L 13.0625 -22.171875 L 18.765625 0 Z M 7.59375 -7.59375 L 11.0625 -7.59375 L 9.359375 -15.578125 Z M 7.59375 -7.59375 "/></g></g></g><g fill="#6e57e0" fill-opacity="1"><g transform="translate(142.778406, 350.039208)"><g><path d="M 11.5 -22.171875 L 17.03125 -22.171875 L 17.03125 0 L 11.84375 0 L 6.90625 -11.640625 L 6.90625 0 L 1.375 0 L 1.375 -22.171875 L 6.5625 -22.171875 L 11.5 -10.328125 Z M 11.5 -22.171875 "/></g></g></g><g fill="#6e57e0" fill-opacity="1"><g transform="translate(162.916665, 350.039208)"><g><path d="M 12.671875 0 L 11.984375 -3.3125 L 6.671875 -3.3125 L 5.9375 0 L 0 0 L 5.703125 -22.171875 L 13.0625 -22.171875 L 18.765625 0 Z M 7.59375 -7.59375 L 11.0625 -7.59375 L 9.359375 -15.578125 Z M 7.59375 -7.59375 "/></g></g></g><g fill="#6e57e0" fill-opacity="1"><g transform="translate(183.400334, 350.039208)"><g><path d="M 7.421875 -4.3125 L 14.296875 -4.3125 L 14.296875 0 L 1.375 0 L 1.375 -22.171875 L 7.421875 -22.171875 Z M 7.421875 -4.3125 "/></g></g></g><g fill="#6e57e0" fill-opacity="1"><g transform="translate(199.428164, 350.039208)"><g><path d="M 12.15625 0 L 6.109375 0 L 6.109375 -7.1875 L 0 -22.171875 L 6.1875 -22.171875 L 9.078125 -12.8125 L 11.78125 -22.171875 L 17.9375 -22.171875 L 12.15625 -7.25 Z M 12.15625 0 "/></g></g></g><g fill="#6e57e0" fill-opacity="1"><g transform="translate(219.082843, 350.039208)"><g><path d="M 9.875 -5.078125 L 9.875 -8.21875 C 9.875 -8.726562 9.585938 -8.984375 9.015625 -8.984375 L 5.703125 -8.984375 C 3.992188 -8.984375 2.785156 -9.359375 2.078125 -10.109375 C 1.378906 -10.859375 1.03125 -11.929688 1.03125 -13.328125 L 1.03125 -17.890625 C 1.03125 -20.742188 2.710938 -22.171875 6.078125 -22.171875 L 10.8125 -22.171875 C 14.175781 -22.171875 15.859375 -20.742188 15.859375 -17.890625 L 15.859375 -15.234375 L 9.8125 -15.234375 L 9.8125 -17.09375 C 9.8125 -17.601562 9.523438 -17.859375 8.953125 -17.859375 L 7.953125 -17.859375 C 7.367188 -17.859375 7.078125 -17.601562 7.078125 -17.09375 L 7.078125 -13.8125 C 7.078125 -13.3125 7.367188 -13.0625 7.953125 -13.0625 L 11.1875 -13.0625 C 12.894531 -13.0625 14.109375 -12.703125 14.828125 -11.984375 C 15.554688 -11.273438 15.921875 -10.226562 15.921875 -8.84375 L 15.921875 -4.28125 C 15.921875 -1.425781 14.238281 0 10.875 0 L 6.1875 0 C 2.800781 0 1.109375 -1.425781 1.109375 -4.28125 L 1.109375 -6.9375 L 7.15625 -6.9375 L 7.15625 -5.078125 C 7.15625 -4.566406 7.441406 -4.3125 8.015625 -4.3125 L 9.015625 -4.3125 C 9.585938 -4.3125 9.875 -4.566406 9.875 -5.078125 Z M 9.875 -5.078125 "/></g></g></g><g fill="#6e57e0" fill-opacity="1"><g transform="translate(237.770351, 350.039208)"><g><path d="M 14.75 -22.171875 L 14.75 -17.859375 L 10.46875 -17.859375 L 10.46875 0 L 4.421875 0 L 4.421875 -17.859375 L 0.171875 -17.859375 L 0.171875 -22.171875 Z M 14.75 -22.171875 "/></g></g></g></svg>